<svg xmlns="http://www.w3.org/2000/svg" viewBox="0 0 128 128">
  <defs>
    <linearGradient id="bg" x1="0%" y1="0%" x2="100%" y2="100%">
      <stop offset="0%" style="stop-color:#6366f1"/>
      <stop offset="100%" style="stop-color:#8b5cf6"/>
    </linearGradient>
  </defs>
  <rect width="128" height="128" rx="24" fill="url(#bg)"/>
  <g fill="#fff">
    <!-- Left brace -->
    <path d="M32 32h8v8h-8v20c0 6.6-5.4 8-8 8 2.6 0 8 1.4 8 8v20h8v8h-8c-4.4 0-8-3.6-8-8v-16c0-4.4-3.6-8-8-8v-8c4.4 0 8-3.6 8-8V40c0-4.4 3.6-8 8-8z"/>
    <!-- Right brace -->
    <path d="M96 32h-8v8h8v20c0 6.6 5.4 8 8 8-2.6 0-8 1.4-8 8v20h-8v8h8c4.4 0 8-3.6 8-8v-16c0-4.4 3.6-8 8-8v-8c-4.4 0-8-3.6-8-8V40c0-4.4-3.6-8-8-8z"/>
    <!-- Dots -->
    <circle cx="48" cy="64" r="6"/>
    <circle cx="64" cy="64" r="6"/>
    <circle cx="80" cy="64" r="6"/>
  </g>
</svg>
